<svg width="22" height="18" viewBox="0 0 22 18" fill="none" xmlns="http://www.w3.org/2000/svg">
<path fill-rule="evenodd" clip-rule="evenodd" d="M14.6069 0.0673802C13.987 -1.98036e-05 13.2258 -9.75638e-06 12.2917 2.43617e-07H9.20846C8.27434 -9.75638e-06 7.51311 -1.98036e-05 6.89326 0.0673802C6.24599 0.13776 5.68388 0.28717 5.16992 0.62981C4.65596 0.97245 4.30185 1.43385 3.98793 2.00426C3.6873 2.55052 3.39453 3.25319 3.03528 4.11543L2.42861 5.57143L1.20004 4.65C0.868675 4.40147 0.398575 4.46863 0.150045 4.8C-0.0984854 5.13137 -0.0313253 5.60147 0.300045 5.85L1.73245 6.9243L1.40649 7.4132C0.799915 8.3227 0.408075 8.9102 0.203865 9.5846C-0.000355333 10.2591 -0.000205337 10.9653 3.46626e-05 12.0585L4.46762e-05 16.75C4.46762e-05 17.1642 0.335835 17.5 0.750045 17.5H3C3.41421 17.5 3.75 17.1642 3.75 16.75V15.75C3.75 15.2574 3.75159 14.9634 3.77992 14.7527C3.79466 14.5883 3.93457 14.5357 4.00267 14.5299C4.2134 14.5016 5.25744 14.5 5.75004 14.5H15.7501C16.2427 14.5 17.2867 14.5016 17.4974 14.5299C17.5657 14.5402 17.706 14.5993 17.7201 14.7527C17.7484 14.9634 17.75 15.2574 17.75 15.75V16.75C17.75 17.1642 18.0858 17.5 18.5 17.5H20.7501C21.1643 17.5 21.5001 17.1642 21.5001 16.75V12.0585C21.5003 10.9653 21.5005 10.2591 21.2963 9.5846C21.0921 8.9102 20.7002 8.3227 20.0936 7.4132L19.7677 6.9243L21.2001 5.85C21.5315 5.60147 21.5986 5.13137 21.3501 4.8C21.1016 4.46863 20.6315 4.40147 20.3001 4.65L19.0715 5.57143L18.4648 4.11537C18.1056 3.25327 17.8128 2.55045 17.5122 2.00426C17.1983 1.43385 16.8442 0.97245 16.3302 0.62981C15.8162 0.28717 15.2541 0.13776 14.6069 0.0673802ZM4.86884 6.5L3.77734 6.23381L4.40361 4.73077C4.78275 3.82084 5.04506 3.19397 5.30178 2.72748C5.54967 2.27706 5.75988 2.0391 6.00169 1.87789C6.2435 1.71668 6.54402 1.61416 7.05513 1.55859C7.58448 1.50103 8.26401 1.5 9.24976 1.5H12.2498C13.2356 1.5 13.9151 1.50103 14.4444 1.55859C14.9556 1.61416 15.2561 1.71668 15.4979 1.87789C15.7397 2.0391 15.9499 2.27706 16.1978 2.72748C16.4545 3.19397 16.7168 3.82084 17.096 4.73077L17.7222 6.23381L16.6666 6.5H4.86884ZM16.75 9.75C17.3023 9.75 17.75 10.1977 17.75 10.75V10.76C17.75 11.3123 17.3023 11.76 16.75 11.76C16.1978 11.76 15.75 11.3123 15.75 10.76V10.75C15.75 10.1977 16.1978 9.75 16.75 9.75ZM5.75 10.75C5.75 10.1977 5.30228 9.75 4.75 9.75C4.19771 9.75 3.75 10.1977 3.75 10.75V10.76C3.75 11.3123 4.19771 11.76 4.75 11.76C5.30228 11.76 5.75 11.3123 5.75 10.76V10.75Z" fill="black"/>
</svg>
