<svg width="123" height="110" viewBox="0 0 123 110" fill="none" xmlns="http://www.w3.org/2000/svg">
<g clip-path="url(#clip0_7_1452)">
<path d="M81.5288 0.224831C80.0217 0.0762819 78.4945 0 76.9498 0H31.3118L49.6422 20.7411C55.3075 27.1513 63.4529 30.8229 72.0089 30.8229H77.0788C85.3617 30.8229 92.2279 37.5974 92.1667 45.8775C92.1094 53.6347 86.1258 59.9907 78.5427 60.6632C78.102 60.7063 77.6622 60.7214 77.2214 60.7214H49.6372L55.0746 66.8746L74.9051 89.3141L76.876 91.5443H77.2214C78.6733 91.5443 80.11 91.476 81.5293 91.3436C89.0571 90.639 96.0619 88.1066 102.079 84.1906C114.719 75.9788 123.076 61.7241 123.001 45.5483C122.89 21.8583 104.649 2.50425 81.5293 0.224831H81.5288Z" fill="white" fill-opacity="0.08"/>
<path d="M76.1993 55.6763L57.2619 34.2034C51.1899 27.3185 42.4512 23.3739 33.2697 23.3739H5.58051L24.5465 44.8794C30.6004 51.7437 39.313 55.6763 48.467 55.6763H76.1993Z" fill="#ED1E24"/>
<path d="M85.3748 110L50.1517 70.0604C45.0522 64.278 37.7131 60.9653 30.002 60.9653H0L35.5433 101.268C40.4391 106.819 47.4855 110 54.8893 110H85.3753H85.3748Z" fill="white" fill-opacity="0.08"/>
</g>
<defs>
<clipPath id="clip0_7_1452">
<rect width="123" height="110" fill="white"/>
</clipPath>
</defs>
</svg>
