<svg width="27" height="22" viewBox="0 0 27 22" fill="none" xmlns="http://www.w3.org/2000/svg">
<path fill-rule="evenodd" clip-rule="evenodd" d="M1.46794 5.68809L2.97072 6.81518L4.94783 2.07009C5.47014 0.816546 6.69496 0 8.05297 0H18.2466C19.6046 0 20.8295 0.816546 21.3518 2.07009L23.3289 6.81524L24.8318 5.68809C25.2371 5.38409 25.8122 5.46624 26.1162 5.87158C26.4201 6.27692 26.338 6.85198 25.9327 7.15598L24.1805 8.47017L25.7346 10.8013C26.1029 11.3539 26.2995 12.0031 26.2995 12.6673V20.4892C26.2995 20.9959 25.8889 21.4066 25.3821 21.4066H22.6298C22.1231 21.4066 21.7124 20.9959 21.7124 20.4892V17.7369H4.58714V20.4892C4.58714 20.9959 4.17639 21.4066 3.66971 21.4066H0.917432C0.410756 21.4066 5.80248e-06 20.9959 5.80248e-06 20.4892V12.6673C5.80248e-06 12.0031 0.19658 11.3539 0.564969 10.8013L2.11914 8.47005L0.367025 7.15598C-0.0383181 6.85198 -0.120471 6.27692 0.18354 5.87158C0.487551 5.46624 1.06259 5.38409 1.46794 5.68809ZM8.0527 1.83485C7.43542 1.83485 6.87869 2.20601 6.64127 2.7758L4.62058 7.62545L5.92309 7.95108H20.376L21.6785 7.62548L19.6577 2.7758C19.4203 2.20601 18.8636 1.83485 18.2463 1.83485H8.0527ZM20.4891 11.9265C21.1647 11.9265 21.7124 12.4742 21.7124 13.1498V13.162C21.7124 13.8376 21.1647 14.3852 20.4891 14.3852C19.8137 14.3852 19.2659 13.8376 19.2659 13.162V13.1498C19.2659 12.4742 19.8137 11.9265 20.4891 11.9265ZM7.03361 13.1498C7.03361 12.4742 6.48594 11.9265 5.81037 11.9265C5.13479 11.9265 4.58714 12.4742 4.58714 13.1498V13.162C4.58714 13.8376 5.13479 14.3852 5.81037 14.3852C6.48594 14.3852 7.03361 13.8376 7.03361 13.162V13.1498Z" fill="white"/>
</svg>
