<svg width="53" height="53" viewBox="0 0 53 53" fill="none" xmlns="http://www.w3.org/2000/svg">
<g clip-path="url(#clip0_32_352)">
<path d="M34.8046 4.09198C34.1797 4.03121 33.5465 4 32.906 4H13.9829L21.5833 12.485C23.9324 15.1074 27.3097 16.6094 30.8573 16.6094H32.9595C36.3939 16.6094 39.2408 19.3808 39.2154 22.7681C39.1917 25.9415 36.7107 28.5417 33.5665 28.8168C33.3837 28.8344 33.2014 28.8406 33.0186 28.8406H21.5812L23.8358 31.3578L32.0582 40.5376L32.8754 41.4499H33.0186C33.6206 41.4499 34.2163 41.422 34.8048 41.3678C37.9261 41.0796 40.8305 40.0436 43.3253 38.4416C48.5662 35.0822 52.0314 29.2508 52.0002 22.6334C51.9544 12.942 44.391 5.02447 34.8048 4.09198H34.8046Z" fill="white"/>
<path d="M32.5948 26.7767L24.7427 17.9923C22.2251 15.1757 18.6017 13.562 14.7947 13.562H3.31384L11.1778 22.3597C13.6879 25.1679 17.3005 26.7767 21.096 26.7767H32.5948Z" fill="#ED1E24"/>
<path d="M36.3993 49L21.7946 32.6611C19.6802 30.2956 16.6371 28.9403 13.4398 28.9403H1L15.7375 45.4277C17.7674 47.6988 20.6891 49 23.759 49H36.3995H36.3993Z" fill="white"/>
</g>
<defs>
<clipPath id="clip0_32_352">
<rect width="51" height="45" fill="white" transform="translate(1 4)"/>
</clipPath>
</defs>
</svg>
