<svg width="168" height="40" viewBox="0 0 168 40" fill="none" xmlns="http://www.w3.org/2000/svg">
<g clip-path="url(#clip0_35_353)">
<path d="M29.6764 0.0816413C29.1278 0.0276997 28.5719 0 28.0096 0H11.3974L18.0697 7.53159C20.1319 9.85928 23.0968 11.1925 26.2112 11.1925H28.0566C31.0716 11.1925 33.5709 13.6525 33.5486 16.6592C33.5277 19.476 31.3497 21.784 28.5895 22.0282C28.429 22.0439 28.2689 22.0493 28.1085 22.0493H18.0679L20.0471 24.2837L27.2654 32.432L27.9828 33.2418H28.1085C28.637 33.2418 29.16 33.2171 29.6766 33.1689C32.4167 32.9131 34.9664 31.9935 37.1565 30.5716C41.7574 27.5896 44.7995 22.4134 44.772 16.5396C44.7318 7.93724 38.0921 0.909352 29.6766 0.0816413H29.6764Z" fill="black"/>
<path d="M27.7365 20.2173L20.8433 12.42C18.6331 9.91996 15.4522 8.48759 12.1101 8.48759H2.0313L8.93489 16.2967C11.1385 18.7893 14.3099 20.2173 17.6419 20.2173H27.7365Z" fill="#ED1E24"/>
<path d="M31.0763 39.9435L18.2552 25.4405C16.3989 23.3408 13.7275 22.1379 10.9207 22.1379H0L12.9377 36.7726C14.7198 38.7885 17.2847 39.9435 19.9797 39.9435H31.0765H31.0763Z" fill="black"/>
</g>
<path d="M160.371 19.5429L168 28.6628H162.452L157.597 22.8719L152.742 28.6628H147.194L154.823 19.5429L147.368 10.6311H152.916L157.597 16.2487L162.278 10.6311H167.827L160.371 19.5429Z" fill="black"/>
<path d="M138.165 26.929C139.298 26.929 140.35 26.7325 141.32 26.3395C142.314 25.9465 143.285 25.3917 144.233 24.675L145.62 26.7556C145.181 27.1486 144.661 27.5069 144.06 27.8306C143.482 28.1542 142.846 28.4316 142.153 28.6628C141.482 28.8708 140.777 29.0327 140.037 29.1483C139.298 29.287 138.558 29.3563 137.818 29.3563C136.177 29.3563 134.674 29.1367 133.31 28.6975C131.969 28.2813 130.825 27.6687 129.877 26.8596C128.929 26.0274 128.19 25.0102 127.658 23.8081C127.149 22.606 126.895 21.2189 126.895 19.647C126.895 18.0981 127.138 16.7226 127.623 15.5205C128.132 14.2953 128.825 13.2781 129.704 12.469C130.605 11.6367 131.669 11.0126 132.894 10.5965C134.119 10.1572 135.472 9.93761 136.951 9.93761C138.338 9.93761 139.644 10.1457 140.87 10.5618C142.095 10.9779 143.158 11.5905 144.06 12.3996C144.961 13.1856 145.678 14.145 146.21 15.2778C146.741 16.4105 147.007 17.6935 147.007 19.1268V21.5542H132.201C132.478 23.4729 133.137 24.8484 134.177 25.6806C135.241 26.5129 136.57 26.929 138.165 26.929ZM136.951 12.1916C136.281 12.1916 135.657 12.3187 135.079 12.573C134.501 12.8273 133.992 13.2319 133.553 13.7867C133.137 14.3415 132.79 15.0581 132.513 15.9366C132.258 16.8151 132.12 17.8785 132.097 19.1268H141.806C141.806 17.9247 141.667 16.8844 141.39 16.006C141.112 15.1275 140.742 14.4108 140.28 13.856C139.841 13.2781 139.321 12.862 138.72 12.6077C138.142 12.3303 137.552 12.1916 136.951 12.1916Z" fill="black"/>
<path d="M118.761 26.2354V13.0585H114.427C113.641 13.0585 112.912 13.1856 112.242 13.4399C111.595 13.6711 111.028 14.0525 110.543 14.5842C110.08 15.1159 109.711 15.7979 109.433 16.6301C109.179 17.4624 109.052 18.468 109.052 19.647C109.052 20.8259 109.179 21.8316 109.433 22.6638C109.711 23.496 110.08 24.178 110.543 24.7097C111.028 25.2414 111.595 25.6344 112.242 25.8887C112.912 26.1199 113.641 26.2354 114.427 26.2354H118.761ZM114.427 28.6628C112.831 28.6628 111.375 28.4547 110.057 28.0386C108.763 27.6225 107.653 27.0214 106.728 26.2354C105.804 25.4494 105.087 24.5016 104.579 23.392C104.093 22.2824 103.85 21.034 103.85 19.647C103.85 18.2599 104.093 17.0116 104.579 15.9019C105.087 14.7923 105.804 13.8445 106.728 13.0585C107.653 12.2725 108.763 11.6714 110.057 11.2553C111.375 10.8392 112.831 10.6311 114.427 10.6311H118.761V4.3894H123.616V28.6628H114.427Z" fill="black"/>
<path d="M95.6865 27.9693H91.1786C87.8728 27.9693 85.4223 27.3798 83.8272 26.2008C82.2552 24.9987 81.4692 23.2186 81.4692 20.8606V10.6311H86.3239V20.8606C86.3239 22.5251 86.74 23.7272 87.5722 24.467C88.4045 25.1836 89.6066 25.5419 91.1786 25.5419H95.6865V10.6311H100.541V28.316C100.541 29.4025 100.333 30.385 99.917 31.2635C99.5009 32.1651 98.8767 32.9395 98.0445 33.5868C97.2354 34.2341 96.2066 34.7311 94.9583 35.0779C93.7331 35.4247 92.2998 35.598 90.6584 35.598C90.1036 35.598 89.5026 35.5518 88.8553 35.4593C88.2311 35.39 87.5954 35.2628 86.9481 35.0779C86.3008 34.9161 85.665 34.6965 85.0409 34.419C84.4398 34.1647 83.885 33.8642 83.3764 33.5175L84.7635 31.4369C85.5495 31.9686 86.4279 32.3847 87.3989 32.6852C88.3698 33.0089 89.3407 33.1707 90.3117 33.1707C92.0455 33.1707 93.3747 32.7777 94.2994 31.9917C95.2241 31.2057 95.6865 29.9805 95.6865 28.316V27.9693Z" fill="black"/>
<path d="M66.912 4.3894C68.6458 4.3894 70.1947 4.5859 71.5586 4.9789C72.9456 5.34878 74.1131 5.9036 75.0609 6.64336C76.0087 7.36 76.7369 8.25003 77.2455 9.31343C77.7541 10.3537 78.0084 11.5443 78.0084 12.8851C78.0084 14.7345 77.546 16.2949 76.6213 17.5664C75.6966 18.8378 74.3674 19.8088 72.6336 20.4792L78.3551 28.6628H72.6336L67.5362 21.3808H66.912H59.4566V28.6628H54.4285V4.3894H66.912ZM59.4566 6.99012V18.78H66.912C68.7383 18.78 70.1484 18.3061 71.1425 17.3583C72.1365 16.3874 72.6336 14.8963 72.6336 12.8851C72.6336 10.8739 72.1365 9.39434 71.1425 8.44653C70.1484 7.47559 68.7383 6.99012 66.912 6.99012H59.4566Z" fill="black"/>
<defs>
<clipPath id="clip0_35_353">
<rect width="44.7719" height="39.9435" fill="white"/>
</clipPath>
</defs>
</svg>
