<svg width="982" height="297" viewBox="0 0 982 297" fill="none" xmlns="http://www.w3.org/2000/svg">
<path d="M592.859 272.897C807.776 272.897 982 266.707 982 259.073C982 251.438 807.776 245.249 592.859 245.249C377.942 245.249 203.718 251.438 203.718 259.073C203.718 266.707 377.942 272.897 592.859 272.897Z" fill="#D1D1D1" fill-opacity="0.53"/>
<path d="M526.519 158.149C526.519 271.667 462.886 261.917 384.392 261.917C305.897 261.917 242.265 267.565 242.265 158.149C242.265 79.6544 305.897 35.0813 384.392 35.0813C462.886 35.0813 526.519 79.6549 526.519 158.149Z" fill="#1A272E"/>
<path opacity="0.28" d="M392.864 45.9097C392.864 45.9097 274.62 35.0813 265.444 178.874C265.444 178.874 256.199 264.539 384.392 261.917C384.392 261.917 493.917 266.109 499.292 195.01C504.268 129.172 498.86 52.8867 392.864 45.9097Z" fill="#8D8DB1"/>
<path d="M457.759 223.054C498.282 182.53 498.282 116.829 457.759 76.3051C417.235 35.7816 351.534 35.7816 311.01 76.3051C270.487 116.829 270.487 182.53 311.01 223.054C351.534 263.577 417.235 263.577 457.759 223.054Z" fill="#929292"/>
<path d="M451.962 217.258C489.285 179.935 489.285 119.423 451.962 82.1008C414.64 44.7782 354.128 44.7781 316.805 82.1008C279.483 119.423 279.483 179.935 316.805 217.258C354.128 254.581 414.64 254.581 451.962 217.258Z" fill="black"/>
<path d="M384.275 67.5631H401.318C403.853 67.5631 405.597 70.1082 404.683 72.4723L395.428 96.4015L387.64 116.539C386.451 119.615 382.099 119.615 380.91 116.539L373.122 96.4015L363.867 72.4723C362.953 70.1082 364.697 67.5631 367.232 67.5631H384.275Z" fill="#F6F6F6"/>
<path d="M384.276 231.065H367.233C364.698 231.065 362.954 228.52 363.868 226.156L373.123 202.227L380.911 182.089C382.1 179.014 386.452 179.014 387.641 182.089L395.429 202.227L404.684 226.156C405.598 228.52 403.854 231.065 401.319 231.065H384.276Z" fill="#F6F6F6"/>
<path d="M442.082 91.5075L454.133 103.559C455.926 105.351 455.359 108.384 453.042 109.409L429.577 119.786L409.83 128.518C406.815 129.852 403.738 126.775 405.072 123.76L413.805 104.013L424.181 80.5487C425.207 78.2304 428.24 77.6645 430.032 79.4569L442.082 91.5075Z" fill="#F6F6F6"/>
<path d="M326.469 207.121L314.418 195.07C312.625 193.278 313.192 190.244 315.51 189.22L338.974 178.843L358.721 170.11C361.736 168.777 364.813 171.854 363.479 174.869L354.747 194.615L344.37 218.08C343.345 220.398 340.312 220.964 338.52 219.172L326.469 207.121Z" fill="#F6F6F6"/>
<path d="M466.027 149.314V166.357C466.027 168.891 463.482 170.636 461.118 169.721L437.188 160.467L417.05 152.679C413.975 151.49 413.975 147.139 417.05 145.95L437.188 138.161L461.118 128.907C463.482 127.992 466.027 129.737 466.027 132.271V149.314Z" fill="#F6F6F6"/>
<path d="M302.524 149.314V132.272C302.524 129.737 305.069 127.993 307.434 128.907L331.363 138.162L351.501 145.95C354.576 147.139 354.576 151.49 351.501 152.68L331.363 160.468L307.434 169.722C305.069 170.636 302.524 168.892 302.524 166.357V149.314Z" fill="#F6F6F6"/>
<path d="M442.082 207.121L430.031 219.172C428.239 220.965 425.206 220.398 424.18 218.08L413.804 194.616L405.071 174.869C403.737 171.854 406.814 168.777 409.829 170.111L429.576 178.843L453.041 189.22C455.359 190.245 455.925 193.278 454.132 195.07L442.082 207.121Z" fill="#F6F6F6"/>
<path d="M326.469 91.5075L338.52 79.4564C340.312 77.664 343.345 78.2304 344.37 80.5482L354.747 104.013L363.479 123.759C364.813 126.775 361.736 129.851 358.721 128.518L338.974 119.785L315.51 109.408C313.192 108.383 312.626 105.35 314.418 103.558L326.469 91.5075Z" fill="#F6F6F6"/>
<path d="M404.359 154.446C406.962 143.424 400.137 132.38 389.115 129.777C378.094 127.175 367.049 134 364.447 145.021C361.844 156.043 368.669 167.087 379.691 169.69C390.712 172.292 401.757 165.467 404.359 154.446Z" fill="#F6F6F6"/>
<path d="M384.392 158.149C389.071 158.149 392.864 154.356 392.864 149.678C392.864 144.999 389.071 141.206 384.392 141.206C379.714 141.206 375.921 144.999 375.921 149.678C375.921 154.356 379.714 158.149 384.392 158.149Z" fill="white"/>
<path opacity="0.28" d="M305.89 64.3638C305.89 64.3638 245.791 110.876 256.699 175.482C256.699 175.482 233.421 109.602 305.89 64.3638Z" fill="#8D8DB1"/>
<path opacity="0.28" d="M491.901 88.1513C491.901 88.1513 514.184 124.897 512.62 189.007C512.62 189.007 523.565 121.77 491.901 88.1513Z" fill="#8D8DB1"/>
<path d="M661.336 208.854H550.084V152.752L665.148 0H720.305V151.624H758.423V208.854H720.305V246.515H661.336V208.854ZM661.336 92.554L617.862 151.624H661.336V92.554Z" fill="white" fill-opacity="0.15"/>
<path d="M111.252 208.854H0L7.81798 152.752L122.882 0H170.221V151.624H208.339V208.854H170.221V262.126H111.252V208.854ZM111.252 92.554L67.7781 151.624H111.252V92.554Z" fill="white" fill-opacity="0.15"/>
<path d="M818.005 47.1031H811.365V113.532H818.005V47.1031Z" fill="#BDBDD8"/>
<path d="M849.407 41.0643H779V47.1036H849.407V41.0643Z" fill="#1A272E"/>
<path d="M780.58 48.7817H779.051C778.547 48.7817 778.138 48.3725 778.138 47.868V40.2994C778.138 39.7949 778.547 39.3857 779.051 39.3857H780.58C781.084 39.3857 781.493 39.7949 781.493 40.2994V47.868C781.493 48.3725 781.084 48.7817 780.58 48.7817Z" fill="#1A272E"/>
<path d="M850.171 48.7817H848.642C848.138 48.7817 847.729 48.3725 847.729 47.868V40.2994C847.729 39.7949 848.138 39.3857 848.642 39.3857H850.171C850.675 39.3857 851.084 39.7949 851.084 40.2994V47.868C851.084 48.3725 850.675 48.7817 850.171 48.7817Z" fill="#1A272E"/>
<path d="M822.393 40.0065H806.743V48.1652H822.393V40.0065Z" fill="#BDBDD8"/>
<path opacity="0.33" d="M811.365 48.1647H818.005L811.365 51.8597V48.1647Z" fill="#1A272E"/>
<path d="M828.899 249.561H800.472V113.787C800.472 108.336 804.891 103.917 810.342 103.917H819.029C824.48 103.917 828.899 108.336 828.899 113.787V249.561Z" fill="#EA4230"/>
<mask id="mask0_104_528" style="mask-type:luminance" maskUnits="userSpaceOnUse" x="800" y="103" width="29" height="147">
<path d="M828.899 249.561H800.472V113.787C800.472 108.336 804.891 103.917 810.342 103.917H819.029C824.48 103.917 828.899 108.336 828.899 113.787V249.561Z" fill="white"/>
</mask>
<g mask="url(#mask0_104_528)">
<path d="M834.128 99.7158H814.568V255.044H834.128V99.7158Z" fill="#C1271B"/>
</g>
<path d="M839.201 261.153H790.711C790.711 254.406 796.181 248.935 802.929 248.935H826.983C833.73 248.936 839.201 254.406 839.201 261.153Z" fill="#1A272E"/>
<path d="M841.802 263.862H787.973C787.483 263.862 787.086 263.465 787.086 262.975V261.338C787.086 260.848 787.483 260.451 787.973 260.451H841.802C842.292 260.451 842.688 260.848 842.688 261.338V262.975C842.688 263.466 842.292 263.862 841.802 263.862Z" fill="#1A272E"/>
<path d="M821.38 105.545H807.991C806.732 105.545 805.712 104.524 805.712 103.266V101.995C805.712 100.737 806.732 99.7162 807.991 99.7162H821.38C822.639 99.7162 823.659 100.737 823.659 101.995V103.266C823.659 104.524 822.639 105.545 821.38 105.545Z" fill="#1A272E"/>
<path opacity="0.32" d="M807.293 184.559C805.732 184.559 804.466 183.293 804.466 181.732V162.514C804.466 160.953 805.732 159.687 807.293 159.687C808.854 159.687 810.12 160.953 810.12 162.514V181.732C810.12 183.293 808.854 184.559 807.293 184.559Z" fill="white"/>
<path opacity="0.32" d="M807.293 193.791C805.732 193.791 804.466 192.525 804.466 190.963V189C804.466 187.438 805.732 186.172 807.293 186.172C808.854 186.172 810.12 187.438 810.12 189V190.963C810.12 192.525 808.854 193.791 807.293 193.791Z" fill="white"/>
<path d="M838.49 138.991C840.622 125.857 831.702 113.481 818.567 111.349C805.433 109.217 793.057 118.137 790.925 131.272C788.793 144.406 797.713 156.782 810.848 158.914C823.982 161.046 836.358 152.126 838.49 138.991Z" fill="#1A272E"/>
<path d="M822.797 154.646C833.577 150.181 838.696 137.823 834.23 127.043C829.765 116.264 817.407 111.145 806.628 115.61C795.848 120.075 790.729 132.434 795.194 143.213C799.659 153.993 812.018 159.111 822.797 154.646Z" fill="white"/>
<mask id="mask1_104_528" style="mask-type:luminance" maskUnits="userSpaceOnUse" x="793" y="113" width="43" height="44">
<path d="M822.797 154.646C833.577 150.181 838.696 137.823 834.23 127.043C829.765 116.264 817.407 111.145 806.628 115.61C795.848 120.075 790.729 132.434 795.194 143.213C799.659 153.993 812.018 159.111 822.797 154.646Z" fill="white"/>
</mask>
<g mask="url(#mask1_104_528)">
<path d="M827.655 116.797C827.655 116.797 828.43 145.219 802.117 153.767C802.117 153.767 820.994 165.878 835.808 149.647C850.622 133.417 827.655 116.797 827.655 116.797Z" fill="#BDBDD8"/>
</g>
<path d="M814.886 138.464C816.723 138.464 818.212 136.975 818.212 135.138C818.212 133.301 816.723 131.812 814.886 131.812C813.05 131.812 811.561 133.301 811.561 135.138C811.561 136.975 813.05 138.464 814.886 138.464Z" fill="#1A272E"/>
<path d="M815.484 116.797H814.288V122.513H815.484V116.797Z" fill="#1A272E"/>
<path d="M815.484 148.051H814.288V153.767H815.484V148.051Z" fill="#1A272E"/>
<path d="M833.371 135.88V134.684H827.655V135.88H833.371Z" fill="#1A272E"/>
<path d="M802.117 135.88V134.684H796.402V135.88H802.117Z" fill="#1A272E"/>
<path d="M828.375 122.624L827.529 121.778L823.488 125.819L824.334 126.665L828.375 122.624Z" fill="#1A272E"/>
<path d="M806.276 144.723L805.43 143.878L801.388 147.919L802.234 148.765L806.276 144.723Z" fill="#1A272E"/>
<path d="M827.545 148.771L828.391 147.925L824.349 143.883L823.503 144.729L827.545 148.771Z" fill="#1A272E"/>
<path d="M805.444 126.671L806.29 125.825L802.249 121.784L801.403 122.63L805.444 126.671Z" fill="#1A272E"/>
<path d="M822.598 127.57L815.388 133.238L814.887 135.282L816.931 134.78L822.598 127.57Z" fill="#F1BF46"/>
<path d="M388.983 236.068H379.802V245.25H388.983V236.068Z" fill="#1A272E"/>
<path d="M670.964 249.991C652.332 249.991 634.73 244.829 617.153 234.209C601.607 224.816 588.002 212.58 573.599 199.625C545.782 174.607 517.017 148.735 473.638 145.661C450.186 143.997 430.998 149.892 416.607 163.174C388.341 189.262 387.584 235.631 387.579 236.096L381.204 236.041C381.208 235.538 381.351 223.529 385.2 207.963C388.774 193.507 396.37 173.193 412.255 158.515C427.993 143.974 448.796 137.509 474.089 139.302C519.653 142.531 549.244 169.146 577.862 194.884C605.724 219.945 632.042 243.615 670.964 243.615C716.2 243.615 736.524 234.353 752.854 226.911C765.397 221.195 776.232 216.257 793.858 217.637L793.361 223.993C777.372 222.741 767.72 227.141 755.497 232.712C738.606 240.411 717.584 249.991 670.964 249.991Z" fill="#EA4230"/>
<path d="M800.364 214.062H786.856V227.569H800.364V214.062Z" fill="#1A272E"/>
</svg>
