<svg width="25" height="25" viewBox="0 0 25 25" fill="none" xmlns="http://www.w3.org/2000/svg">
<path d="M12.2461 0C5.48275 0 0 5.47086 0 12.2195C0 18.9681 5.48275 24.439 12.2461 24.439C18.6106 24.439 23.8404 19.5948 24.4357 13.3993C24.4635 13.1111 24.3149 12.8344 24.0592 12.6974C23.8033 12.5605 23.4901 12.5901 23.2648 12.7727C22.0262 13.7755 20.4491 14.3759 18.7293 14.3759C14.7509 14.3759 11.5257 11.1577 11.5257 7.18794C11.5257 4.83015 12.6627 2.7375 14.4224 1.42561C14.6551 1.25215 14.7606 0.956226 14.69 0.675106C14.6194 0.393985 14.3865 0.18266 14.0994 0.13913C13.4946 0.0474692 12.8757 0 12.2461 0Z" fill="black" fill-opacity="0.3"/>
</svg>
